<?xml version="1.0" encoding="utf-8"?>
<!-- Generator: Adobe Illustrator 16.0.3, SVG Export Plug-In . SVG Version: 6.00 Build 0)  -->
<!DOCTYPE svg PUBLIC "-//W3C//DTD SVG 1.1//EN" "http://www.w3.org/Graphics/SVG/1.1/DTD/svg11.dtd">
<svg version="1.1" id="Vrstva_1" xmlns="http://www.w3.org/2000/svg" xmlns:xlink="http://www.w3.org/1999/xlink" x="0px" y="0px"
	 width="30px" height="30px" viewBox="0 0 30 30" enable-background="new 0 0 30 30" xml:space="preserve">
<path fill="none" stroke="#FFFFFF" stroke-width="1.5" stroke-miterlimit="10" d="M18.783,7h-7.566C8.898,7,7,8.938,7,11.308v7.386
	C7,21.062,8.899,23,11.217,23h7.566C21.102,23,23,21.062,23,18.694v-7.386C23,8.938,21.102,7,18.783,7z"/>
<path fill="none" stroke="#FFFFFF" stroke-width="1.5" stroke-miterlimit="10" d="M15,11.293c-2.208,0-4,1.789-4,4
	c0,2.21,1.792,3.999,4,3.999c2.211,0,4-1.789,4-3.999C19,13.082,17.211,11.293,15,11.293z"/>
<circle fill="#FFFFFF" cx="19.399" cy="9.872" r="0.928"/>
</svg>
