<svg xmlns="http://www.w3.org/2000/svg" width="30" height="30" viewBox="0 0 30 30"><path fill="#FFF" d="M10.36 23H6.718V12.203h3.645V23zM8.54 10.73h-.024C7.294 10.73 6.5 9.9 6.5 8.863 6.5 7.807 7.316 7 8.563 7c1.247 0 2.013.807 2.037 1.864 0 1.037-.79 1.865-2.06 1.865zM23.5 23h-3.645v-5.776c0-1.452-.528-2.442-1.845-2.442-1.008 0-1.606.668-1.868 1.312-.098.23-.123.554-.123.876V23h-3.643s.046-9.783 0-10.797h3.642v1.532C16.5 13 17.366 11.95 19.3 11.95c2.4 0 4.197 1.543 4.197 4.86V23zm-7.502-9.23c.006-.01.015-.022.02-.034v.034H16z"/></svg>