<?xml version="1.0" encoding="utf-8"?>
<!-- Generator: Adobe Illustrator 16.0.0, SVG Export Plug-In . SVG Version: 6.00 Build 0)  -->
<!DOCTYPE svg PUBLIC "-//W3C//DTD SVG 1.1//EN" "http://www.w3.org/Graphics/SVG/1.1/DTD/svg11.dtd">
<svg version="1.1" id="Layer_1" xmlns="http://www.w3.org/2000/svg" xmlns:xlink="http://www.w3.org/1999/xlink" x="0px" y="0px"
	 width="13px" height="25px" viewBox="0 0 13 25" enable-background="new 0 0 13 25" xml:space="preserve">
<path fill="#949494" d="M2,6.99v0.009V18c0,3.55,1.158,5,4,5c4.35,0,5-3.133,5-5V5c0-1.253-1.143-3-3-3C6.094,2,5,3.093,5,5v13
	C5,18.404,5.526,19,6,19C7.457,19,8,18.385,8,18V6.999h2c0,0,0,9.583,0,11.001C10,19.25,8.918,21,6,21C4.416,21,3,19.5,3,18
	C3,16.5,3,7.25,3,5c0-3.083,2.082-5,5-5c2.916,0,5,2.583,5,5c0,1.083,0,10.333,0,13C13,20.667,11.75,25,6,25C0.082,25,0,19.667,0,18
	C0,16.333,0,6.999,0,6.99H2L2,6.99L2,6.99z"/>
</svg>
